<svg width="35" height="35" viewBox="0 0 35 35" fill="none" xmlns="http://www.w3.org/2000/svg">
<circle cx="17.5" cy="17.5" r="17.5" fill="#000A1D"/>
<path d="M16.2852 8.95969V7.21159C16.2852 6.54457 16.8289 6 17.4975 6C18.1662 6 18.7099 6.54457 18.7099 7.21159V8.95969C18.7099 9.62831 18.1662 10.1745 17.4975 10.1745C16.8289 10.1745 16.2852 9.62831 16.2852 8.95969Z" fill="white"/>
<path d="M16.2852 27.7839V26.0374C16.2852 25.3704 16.8289 24.8242 17.4975 24.8242C18.1662 24.8242 18.7099 25.3704 18.7099 26.0374V27.7839C18.7099 28.4541 18.1662 29.0003 17.4975 29.0003C16.8289 29.0003 16.2852 28.4541 16.2852 27.7839Z" fill="white"/>
<path d="M22.6777 12.3182C22.2064 11.8445 22.2064 11.0736 22.6777 10.6031L23.9134 9.36819C24.3879 8.8929 25.1556 8.8929 25.6293 9.36819C26.1046 9.84348 26.1046 10.608 25.6293 11.08L24.3935 12.3182C24.1567 12.5526 23.8458 12.6719 23.5364 12.6719C23.2255 12.6719 22.9161 12.5526 22.6777 12.3182Z" fill="white"/>
<path d="M9.36517 25.6299C8.8939 25.1578 8.8939 24.3885 9.36517 23.9132L10.6017 22.6783C11.0786 22.2062 11.8431 22.2062 12.3184 22.6783C12.7905 23.1552 12.7905 23.9197 12.3184 24.395L11.081 25.6299C10.8458 25.8659 10.5333 25.9835 10.2231 25.9835C9.91296 25.9844 9.6012 25.8659 9.36517 25.6299Z" fill="white"/>
<path d="M26.0374 18.7099C25.3672 18.7099 24.8242 18.167 24.8242 17.4984C24.8242 16.8281 25.3672 16.2852 26.0374 16.2852H27.7847C28.4533 16.2852 28.9987 16.8313 28.9987 17.4984C28.9987 18.167 28.4533 18.7099 27.7847 18.7099H26.0374Z" fill="white"/>
<path d="M7.21239 18.7099C6.54296 18.7099 6 18.1678 6 17.4984C6 16.8281 6.54296 16.2852 7.21239 16.2852H8.95969C9.62831 16.2852 10.1721 16.8313 10.1721 17.4984C10.1721 18.167 9.62831 18.7099 8.95969 18.7099H7.21239Z" fill="white"/>
<path d="M23.9131 25.6299L22.6774 24.3917C22.2061 23.9197 22.2061 23.1552 22.6798 22.6783C23.1527 22.2062 23.9196 22.2062 24.3932 22.6783L25.629 23.9132C26.1011 24.3885 26.1011 25.1578 25.629 25.6299C25.3905 25.8659 25.0804 25.9835 24.7711 25.9835C24.4617 25.9844 24.1508 25.8659 23.9131 25.6299Z" fill="white"/>
<path d="M10.6017 12.3182L9.36517 11.08C8.8939 10.608 8.8939 9.84025 9.36517 9.36819C9.83965 8.8929 10.6074 8.8929 11.081 9.36819L12.3184 10.6031C12.7905 11.0736 12.7905 11.8445 12.3184 12.3182C12.08 12.5526 11.7706 12.6719 11.4605 12.6719C11.1495 12.6719 10.8394 12.5526 10.6017 12.3182Z" fill="white"/>
</svg>
